<?xml version="1.0" standalone="no"?>
<!DOCTYPE svg PUBLIC "-//W3C//DTD SVG 20010904//EN"
 "http://www.w3.org/TR/2001/REC-SVG-20010904/DTD/svg10.dtd">
<svg version="1.0" xmlns="http://www.w3.org/2000/svg"
 width="260.000000pt" height="260.000000pt" viewBox="0 0 260.000000 260.000000"
 preserveAspectRatio="xMidYMid meet">
<metadata>
Created by potrace 1.11, written by Peter Selinger 2001-2013
</metadata>
<g transform="translate(0.000000,260.000000) scale(0.100000,-0.100000)"
fill="#000000" stroke="none">
<path d="M374 2046 c-143 -29 -248 -113 -296 -238 -32 -84 -33 -96 -33 -418 0
-337 4 -365 65 -461 61 -94 170 -169 269 -185 28 -4 41 -12 42 -23 2 -51 11
-68 65 -122 l58 -59 61 60 c46 46 60 67 61 91 2 34 17 49 49 49 29 0 128 53
179 95 59 48 109 125 134 205 18 59 20 93 21 350 0 312 -9 381 -62 473 -54 91
-163 164 -277 185 -75 14 -264 13 -336 -2z m342 -244 c83 -48 93 -94 92 -411
-2 -254 -8 -306 -45 -355 -22 -29 -83 -70 -91 -61 -3 3 -6 22 -7 43 l0 37
-120 3 -121 3 1 -38 c1 -21 0 -41 -2 -45 -6 -12 -55 17 -85 49 -49 52 -56 102
-54 393 2 247 3 268 23 312 35 77 93 98 258 95 94 -2 116 -6 151 -25z"/>
<path d="M1229 2028 c-2 -44 -6 -215 -13 -533 -4 -176 -9 -416 -12 -532 l-5
-213 99 0 99 0 29 42 c100 145 268 385 278 396 10 10 25 -33 72 -213 l59 -225
101 0 101 0 38 98 c21 53 44 111 51 127 7 17 38 93 69 170 31 77 60 149 65
160 8 17 265 655 291 723 l9 22 -124 0 -123 0 -28 -72 c-15 -40 -36 -91 -45
-113 -10 -22 -27 -65 -39 -95 -69 -173 -144 -359 -156 -385 -15 -36 -28 -66
-51 -120 l-16 -40 -25 90 c-13 50 -25 97 -27 105 -12 47 -28 109 -37 135 l-9
30 -85 0 c-47 -1 -89 -6 -94 -11 -4 -5 -48 -67 -97 -139 -48 -71 -101 -148
-117 -170 l-28 -39 7 354 c3 195 7 375 8 400 4 72 7 70 -125 70 -116 0 -119 0
-120 -22z"/>
</g>
</svg>
