<?xml version="1.0" encoding="UTF-8"?>
<svg width="259px" height="66px" viewBox="0 0 259 66" version="1.1" xmlns="http://www.w3.org/2000/svg" xmlns:xlink="http://www.w3.org/1999/xlink">
    <!-- Generator: Sketch 58 (84663) - https://sketch.com -->
    <title>Group 10</title>
    <desc>Created with Sketch.</desc>
    <defs>
        <path d="M12.890625,0 C16.3281422,0 19.0351464,0.9166575 21.0117188,2.75 C22.9882911,4.5833425 23.9765625,7.39060609 23.9765625,11.171875 L23.9765625,20.4101562 C23.9765625,22.1862068 23.690107,23.7617119 23.1171875,25.1367188 C22.544268,26.5117256 21.6705788,27.7148386 20.4960938,28.7460938 C20.0950501,29.0611995 19.6223986,29.4049461 19.078125,29.7773438 C18.5052055,30.1497414 18.0325539,30.4218741 17.6601562,30.59375 L17.1101557,30.8137503 C16.8523437,30.9134376 16.6203135,30.9976559 16.4140625,31.0664062 C16.0703108,31.1523442 15.7695325,31.2096353 15.5117188,31.2382812 L13.8359375,31.3671875 L13.8359375,31.3671875 L11.0859375,31.3671875 C9.36717891,31.3671875 7.82031938,31.1093776 6.4453125,30.59375 C5.0989516,30.1067684 3.93880695,29.3476614 2.96484375,28.3164062 C1.96223457,27.3137971 1.21745035,26.1536524 0.73046875,24.8359375 C0.243487148,23.5182226 0,22.0429769 0,20.4101562 L0,11.171875 C0,7.39060609 0.988271367,4.5833425 2.96484375,2.75 C4.94141613,0.9166575 7.64842031,0 11.0859375,0 L12.890625,0 Z M18.21875,11.171875 C18.21875,9.05207273 17.8033896,7.5625043 16.9726562,6.703125 C16.1419229,5.8437457 14.7812595,5.4140625 12.890625,5.4140625 L11.0859375,5.4140625 C9.252595,5.4140625 7.9062543,5.81510016 7.046875,6.6171875 C6.1874957,7.44792082 5.7578125,8.9661348 5.7578125,11.171875 L5.7578125,20.4101562 C5.7578125,22.1862068 6.21614125,23.561193 7.1328125,24.5351562 C8.02083777,25.5091195 9.33853293,25.9960938 11.0859375,25.9960938 L12.890625,25.9960938 C14.6380296,25.9960938 15.9700475,25.5091195 16.8867188,24.5351562 C17.774744,23.561193 18.21875,22.1862068 18.21875,20.4101562 L18.21875,11.171875 Z M9.109375,32.9140625 L9.109375,23.5898438 L14.8671875,23.5898438 L14.8671875,32.9140625 L13.2611229,34.5753726 C12.8913583,34.9553679 12.4814011,35.3755557 12.03125,35.8359375 L11.4068875,35.1940367 C10.8164339,34.5948139 10.0505999,33.834826 9.109375,32.9140625 Z M44.7005445,21.7851562 C44.7005445,23.2461011 44.4284118,24.3489546 43.8841382,25.09375 C43.3685107,25.8098994 42.6380492,26.1679688 41.692732,26.1679688 L37.052107,26.1679688 C36.0781438,26.1679688 35.2760685,25.8098994 34.645857,25.09375 C34.0442915,24.3489546 33.7435132,23.2461011 33.7435132,21.7851562 L33.7435132,0.38671875 L27.9857007,0.38671875 L27.9857007,21.7851562 C27.9857007,23.303393 28.2005424,24.6497337 28.630232,25.8242188 C29.0599216,27.0273498 29.7044465,28.0729122 30.5638257,28.9609375 C31.451851,29.8203168 32.4257996,30.4648416 33.4857007,30.8945312 C34.5742479,31.3242209 35.7630381,31.5390625 37.052107,31.5390625 L41.692732,31.5390625 C43.0677389,31.5390625 44.2851746,31.3098981 45.3450757,30.8515625 C46.4336229,30.3932269 47.3646031,29.7200565 48.1380445,28.8320312 C48.9114859,27.91536 49.4843968,26.8697975 49.8567945,25.6953125 C50.2578382,24.5208275 50.458357,23.2174551 50.458357,21.7851562 L50.458357,0.38671875 L44.7005445,0.38671875 L44.7005445,21.7851562 Z M51.932339,31.1953125 L57.9909327,31.1953125 L60.4401515,24.1054688 L60.4401515,24.1054688 L70.0221827,24.1054688 L70.5327224,25.5272504 C71.001055,26.8468194 71.6616016,28.7361656 72.5143702,31.1953125 L78.6159327,31.1953125 L67.6159327,0.38671875 L67.6159327,0.38671875 L62.8464015,0.38671875 L51.932339,31.1953125 L51.932339,31.1953125 Z M68.0456202,18.734375 L62.3307765,18.734375 L65.1237452,10.8710938 L65.1237452,10.8710938 L65.2096827,10.8710938 L68.0456202,18.734375 L68.0456202,18.734375 Z M86.3633522,13.234375 L86.0196022,13.234375 L86.0196022,0.38671875 L80.2617897,0.38671875 L80.2617897,31.1953125 L86.0196022,31.1953125 L86.0196022,18.6054688 L86.4492897,18.6054688 L96.546946,31.1953125 L96.546946,31.1953125 L103.679758,31.1953125 L91.4336647,15.8984375 L91.4336647,15.8984375 L101.664697,2.27347253 C102.122435,1.66255829 102.593602,1.03364039 103.078196,0.38671875 L96.031321,0.38671875 L86.3633522,13.234375 L86.3633522,13.234375 Z M125.520928,31.1953125 L105.49749,31.1953125 L105.49749,31.1953125 L105.49749,0.38671875 L105.49749,0.38671875 L125.520928,0.38671875 L125.520928,0.38671875 L125.520928,5.7578125 L125.520928,5.7578125 L111.255303,5.7578125 L111.255303,5.7578125 L111.255303,12.5898438 L111.255303,12.5898438 L123.243584,12.5898438 L123.243584,12.5898438 L123.243584,17.9609375 L123.243584,17.9609375 L111.255303,17.9609375 L111.255303,17.9609375 L111.255303,25.8242188 L111.255303,25.8242188 L125.520928,25.8242188 L125.520928,25.8242188 L125.520928,31.1953125 L125.520928,31.1953125 Z" id="path-1"></path>
        <filter x="-0.8%" y="-2.8%" width="101.6%" height="111.2%" filterUnits="objectBoundingBox" id="filter-2">
            <feOffset dx="0" dy="2" in="SourceAlpha" result="shadowOffsetOuter1"></feOffset>
            <feColorMatrix values="0 0 0 0 0   0 0 0 0 0   0 0 0 0 0  0 0 0 0.25 0" type="matrix" in="shadowOffsetOuter1"></feColorMatrix>
        </filter>
        <path d="M149.961191,20.0193125 L147.673191,11.4393125 L143.537191,11.4393125 L137.641191,20.0193125 L138.037191,0.3953125 L132.185191,0.3953125 L131.525191,31.1953125 L136.189191,31.1953125 L143.713191,20.3713125 L146.573191,31.1953125 L151.325191,31.1953125 L163.733191,0.3953125 L157.925191,0.3953125 L149.961191,20.0193125 Z M175.537548,0.1313125 C168.673548,0.1313125 163.701548,3.7393125 162.073548,11.3073125 L160.093548,20.5473125 C159.873548,21.5153125 159.785548,22.4393125 159.785548,23.3193125 C159.785548,28.2913125 163.041548,31.5033125 168.893548,31.5033125 L170.653548,31.5033125 C174.129548,31.5033125 177.033548,30.4913125 179.453548,28.4673125 C181.873548,26.3993125 183.413548,23.7593125 184.073548,20.5473125 L186.053548,11.3073125 C186.317548,10.0753125 186.449548,8.9313125 186.449548,7.9193125 C186.449548,2.6393125 183.017548,0.1313125 177.341548,0.1313125 L175.537548,0.1313125 Z M178.309548,20.5473125 C177.605548,24.1113125 175.273548,26.0913125 171.797548,26.0913125 L170.037548,26.0913125 C167.177548,26.0913125 165.681548,24.7273125 165.681548,22.2633125 C165.681548,21.7353125 165.725548,21.1633125 165.857548,20.5473125 L167.837548,11.3073125 C168.717548,7.0393125 170.653548,5.4993125 174.393548,5.4993125 L176.197548,5.4993125 C179.189548,5.4993125 180.597548,6.4673125 180.597548,8.9753125 C180.597548,9.6353125 180.509548,10.4273125 180.289548,11.3073125 L178.309548,20.5473125 Z M185.273905,31.1953125 L191.037905,31.1953125 L193.809905,18.0393125 L197.153905,18.0393125 L201.465905,31.1953125 L207.933905,31.1953125 L203.445905,17.5993125 L203.533905,17.5553125 C205.425905,16.9833125 207.141905,15.9273125 208.593905,14.3873125 C210.045905,12.8473125 210.969905,11.1313125 211.365905,9.2393125 C211.497905,8.6233125 211.585905,8.0073125 211.585905,7.3913125 C211.585905,5.3673125 210.881905,3.6953125 209.517905,2.3753125 C208.153905,1.0553125 206.349905,0.3953125 204.193905,0.3953125 L191.829905,0.3953125 L185.273905,31.1953125 Z M196.405905,5.7633125 L203.049905,5.7633125 C204.633905,5.7633125 205.733905,6.9073125 205.733905,8.4913125 C205.733905,8.7113125 205.689905,8.9753125 205.645905,9.2393125 C205.205905,11.0873125 203.401905,12.6713125 201.597905,12.6713125 L194.953905,12.6713125 L196.405905,5.7633125 Z M210.718262,31.1953125 L229.506262,31.1953125 L230.650262,25.8273125 L217.626262,25.8273125 L222.994262,0.3953125 L217.274262,0.3953125 L210.718262,31.1953125 Z M231.890619,31.1953125 L243.110619,31.1953125 C246.542619,31.1953125 249.446619,30.1833125 251.866619,28.1593125 C254.286619,26.1353125 255.826619,23.4953125 256.530619,20.2393125 L258.378619,11.5713125 C258.598619,10.3393125 258.730619,9.1953125 258.730619,8.1833125 C258.730619,2.9033125 255.386619,0.3953125 249.622619,0.3953125 L238.446619,0.3953125 L231.890619,31.1953125 Z M250.766619,20.2393125 C250.018619,23.8033125 247.730619,25.8273125 244.254619,25.8273125 L238.798619,25.8273125 L243.022619,5.7633125 L248.478619,5.7633125 C251.514619,5.7633125 252.878619,6.7313125 252.878619,9.2393125 C252.878619,9.8993125 252.790619,10.6473125 252.614619,11.5713125 L250.766619,20.2393125 Z" id="path-3"></path>
        <filter x="-0.8%" y="-3.2%" width="101.6%" height="112.8%" filterUnits="objectBoundingBox" id="filter-4">
            <feOffset dx="0" dy="2" in="SourceAlpha" result="shadowOffsetOuter1"></feOffset>
            <feColorMatrix values="0 0 0 0 0   0 0 0 0 0   0 0 0 0 0  0 0 0 0.25 0" type="matrix" in="shadowOffsetOuter1"></feColorMatrix>
        </filter>
    </defs>
    <g id="Page-3" stroke="none" stroke-width="1" fill="none" fill-rule="evenodd">
        <g id="Group-10" transform="translate(0.191406, 0.740000)" fill-rule="nonzero">
            <path d="M37.1635937,7.26 L36.4435937,7.26 L36.4435937,0.84 L34.0735937,0.84 L34.0735937,0.18 L39.5335937,0.18 L39.5335937,0.84 L37.1635937,0.84 L37.1635937,7.26 Z M40.6335937,0.18 L41.3535937,0.18 L41.3535937,3.25 L45.2135937,3.25 L45.2135937,0.18 L45.9335937,0.18 L45.9335937,7.26 L45.2135937,7.26 L45.2135937,3.91 L41.3535937,3.91 L41.3535937,7.26 L40.6335937,7.26 L40.6335937,0.18 Z M48.5735937,6.6 L52.3635937,6.6 L52.3635937,7.26 L47.8535937,7.26 L47.8535937,0.18 L52.2435937,0.18 L52.2435937,0.84 L48.5735937,0.84 L48.5735937,3.25 L52.0035937,3.25 L52.0035937,3.91 L48.5735937,3.91 L48.5735937,6.6 Z M62.6835937,3.72 C62.6835937,3.3133313 62.6169277,2.92500185 62.4835937,2.555 C62.3502597,2.18499815 62.158595,1.8600014 61.9085937,1.58 C61.6585925,1.2999986 61.3535955,1.0766675 60.9935937,0.91 C60.6335919,0.7433325 60.2269293,0.66 59.7735937,0.66 C59.3202581,0.66 58.9135955,0.7433325 58.5535937,0.91 C58.1935919,1.0766675 57.888595,1.2999986 57.6385937,1.58 C57.3885925,1.8600014 57.1969277,2.18499815 57.0635937,2.555 C56.9302597,2.92500185 56.8635937,3.3133313 56.8635937,3.72 C56.8635937,4.1266687 56.9302597,4.51499815 57.0635937,4.885 C57.1969277,5.25500185 57.3885925,5.5799986 57.6385937,5.86 C57.888595,6.1400014 58.1935919,6.3633325 58.5535937,6.53 C58.9135955,6.6966675 59.3202581,6.78 59.7735937,6.78 C60.2269293,6.78 60.6335919,6.6966675 60.9935937,6.53 C61.3535955,6.3633325 61.6585925,6.1400014 61.9085937,5.86 C62.158595,5.5799986 62.3502597,5.25500185 62.4835937,4.885 C62.6169277,4.51499815 62.6835937,4.1266687 62.6835937,3.72 Z M63.4635937,3.72 C63.4635937,4.2600027 63.3702613,4.7566644 63.1835937,5.21 C62.9969261,5.6633356 62.7385954,6.05499835 62.4085937,6.385 C62.0785921,6.71500165 61.688596,6.9733324 61.2385937,7.16 C60.7885915,7.3466676 60.300263,7.44 59.7735937,7.44 C59.2469244,7.44 58.758596,7.3466676 58.3085937,7.16 C57.8585915,6.9733324 57.4685954,6.71500165 57.1385937,6.385 C56.8085921,6.05499835 56.5502613,5.6633356 56.3635937,5.21 C56.1769261,4.7566644 56.0835937,4.2600027 56.0835937,3.72 C56.0835937,3.1799973 56.1769261,2.6833356 56.3635937,2.23 C56.5502613,1.7766644 56.8085921,1.38500165 57.1385937,1.055 C57.4685954,0.72499835 57.8585915,0.4666676 58.3085937,0.28 C58.758596,0.0933324 59.2469244,5.68434189e-14 59.7735937,5.68434189e-14 C60.300263,5.68434189e-14 60.7885915,0.0933324 61.2385937,0.28 C61.688596,0.4666676 62.0785921,0.72499835 62.4085937,1.055 C62.7385954,1.38500165 62.9969261,1.7766644 63.1835937,2.23 C63.3702613,2.6833356 63.4635937,3.1799973 63.4635937,3.72 Z M65.6235937,3.31 L66.9035937,3.31 C67.2235953,3.31 67.4952593,3.276667 67.7185937,3.21 C67.9419282,3.143333 68.1202597,3.05500055 68.2535937,2.945 C68.3869277,2.83499945 68.4835934,2.70500075 68.5435937,2.555 C68.603594,2.40499925 68.6335937,2.2433342 68.6335937,2.07 C68.6335937,1.9033325 68.603594,1.74500075 68.5435937,1.595 C68.4835934,1.44499925 68.3869277,1.3133339 68.2535937,1.2 C68.1202597,1.0866661 67.9419282,0.99833365 67.7185937,0.935 C67.4952593,0.87166635 67.2235953,0.84 66.9035937,0.84 L65.6235937,0.84 L65.6235937,3.31 Z M65.6235937,7.26 L64.9035937,7.26 L64.9035937,0.18 L67.0835937,0.18 C67.8035973,0.18 68.371925,0.3366651 68.7885937,0.65 C69.2052625,0.9633349 69.4135937,1.4366635 69.4135937,2.07 C69.4135937,2.5633358 69.2585953,2.97833165 68.9485937,3.315 C68.6385922,3.65166835 68.1902633,3.8466664 67.6035937,3.9 L69.6435937,7.26 L68.7635937,7.26 L66.8235937,3.97 L65.6235937,3.97 L65.6235937,7.26 Z M71.5535937,7.26 L70.8335937,7.26 L70.8335937,0.18 L71.5535937,0.18 L71.5535937,7.26 Z M78.7035937,1.48 C78.4635925,1.2266654 78.1769288,1.0266674 77.8435937,0.88 C77.5102587,0.7333326 77.1235959,0.66 76.6835937,0.66 C76.2302581,0.66 75.8235955,0.7433325 75.4635937,0.91 C75.1035919,1.0766675 74.798595,1.2999986 74.5485937,1.58 C74.2985925,1.8600014 74.1069277,2.18499815 73.9735937,2.555 C73.8402597,2.92500185 73.7735937,3.3133313 73.7735937,3.72 C73.7735937,4.1266687 73.8402597,4.51499815 73.9735937,4.885 C74.1069277,5.25500185 74.2985925,5.5799986 74.5485937,5.86 C74.798595,6.1400014 75.1035919,6.3633325 75.4635937,6.53 C75.8235955,6.6966675 76.2302581,6.78 76.6835937,6.78 C77.0502622,6.78 77.4019254,6.73500045 77.7385937,6.645 C78.0752621,6.55499955 78.3769257,6.4333341 78.6435937,6.28 L78.6435937,3.91 L76.9535937,3.91 L76.9535937,3.25 L79.3635937,3.25 L79.3635937,6.72 C78.9635917,6.9533345 78.5252628,7.13166605 78.0485937,7.255 C77.5719247,7.37833395 77.1169292,7.44 76.6835937,7.44 C76.1569244,7.44 75.668596,7.3466676 75.2185937,7.16 C74.7685915,6.9733324 74.3785954,6.71500165 74.0485937,6.385 C73.7185921,6.05499835 73.4602613,5.6633356 73.2735937,5.21 C73.0869261,4.7566644 72.9935937,4.2600027 72.9935937,3.72 C72.9935937,3.1799973 73.0869261,2.6833356 73.2735937,2.23 C73.4602613,1.7766644 73.7185921,1.38500165 74.0485937,1.055 C74.3785954,0.72499835 74.7685915,0.4666676 75.2185937,0.28 C75.668596,0.0933324 76.1569244,5.68434189e-14 76.6835937,5.68434189e-14 C77.2502632,5.68434189e-14 77.7385917,0.07833255 78.1485937,0.235 C78.5585958,0.39166745 78.9235921,0.6299984 79.2435937,0.95 L78.7035937,1.48 Z M81.9735937,7.26 L81.2535937,7.26 L81.2535937,0.18 L81.9735937,0.18 L81.9735937,7.26 Z M89.0135937,6.18 L89.0335937,6.18 L89.0335937,0.18 L89.7535937,0.18 L89.7535937,7.26 L88.8535937,7.26 L84.6335937,1.2 L84.6135937,1.2 L84.6135937,7.26 L83.8935937,7.26 L83.8935937,0.18 L84.7935937,0.18 L89.0135937,6.18 Z M92.6035937,4.74 L95.6735937,4.74 L94.1435937,1.02 L92.6035937,4.74 Z M91.5535937,7.26 L90.7135937,7.26 L93.7935937,0.18 L94.4935937,0.18 L97.5735937,7.26 L96.7335937,7.26 L95.9535937,5.4 L92.3335937,5.4 L91.5535937,7.26 Z M99.2535937,6.6 L102.553594,6.6 L102.553594,7.26 L98.5335937,7.26 L98.5335937,0.18 L99.2535937,0.18 L99.2535937,6.6 Z M107.033594,7.26 L106.313594,7.26 L106.313594,0.18 L110.583594,0.18 L110.583594,0.84 L107.033594,0.84 L107.033594,3.25 L110.333594,3.25 L110.333594,3.91 L107.033594,3.91 L107.033594,7.26 Z M112.593594,7.26 L111.873594,7.26 L111.873594,0.18 L112.593594,0.18 L112.593594,7.26 Z M115.233594,3.31 L116.513594,3.31 C116.833595,3.31 117.105259,3.276667 117.328594,3.21 C117.551928,3.143333 117.73026,3.05500055 117.863594,2.945 C117.996928,2.83499945 118.093593,2.70500075 118.153594,2.555 C118.213594,2.40499925 118.243594,2.2433342 118.243594,2.07 C118.243594,1.9033325 118.213594,1.74500075 118.153594,1.595 C118.093593,1.44499925 117.996928,1.3133339 117.863594,1.2 C117.73026,1.0866661 117.551928,0.99833365 117.328594,0.935 C117.105259,0.87166635 116.833595,0.84 116.513594,0.84 L115.233594,0.84 L115.233594,3.31 Z M115.233594,7.26 L114.513594,7.26 L114.513594,0.18 L116.693594,0.18 C117.413597,0.18 117.981925,0.3366651 118.398594,0.65 C118.815262,0.9633349 119.023594,1.4366635 119.023594,2.07 C119.023594,2.5633358 118.868595,2.97833165 118.558594,3.315 C118.248592,3.65166835 117.800263,3.8466664 117.213594,3.9 L119.253594,7.26 L118.373594,7.26 L116.433594,3.97 L115.233594,3.97 L115.233594,7.26 Z M123.793594,1.35 C123.480259,0.8899977 123.023597,0.66 122.423594,0.66 C122.236926,0.66 122.053595,0.68499975 121.873594,0.735 C121.693593,0.78500025 121.531928,0.86166615 121.388594,0.965 C121.24526,1.06833385 121.130261,1.20166585 121.043594,1.365 C120.956927,1.52833415 120.913594,1.7199989 120.913594,1.94 C120.913594,2.2600016 121.003593,2.50833245 121.183594,2.685 C121.363595,2.86166755 121.586926,3.0066661 121.853594,3.12 C122.120262,3.2333339 122.411925,3.33499955 122.728594,3.425 C123.045262,3.51500045 123.336926,3.63499925 123.603594,3.785 C123.870262,3.93500075 124.093593,4.1333321 124.273594,4.38 C124.453595,4.6266679 124.543594,4.9633312 124.543594,5.39 C124.543594,5.7100016 124.475261,5.99833205 124.338594,6.255 C124.201926,6.51166795 124.021928,6.7266658 123.798594,6.9 C123.575259,7.0733342 123.325262,7.2066662 123.048594,7.3 C122.771926,7.3933338 122.493595,7.44 122.213594,7.44 C121.780258,7.44 121.368596,7.35833415 120.978594,7.195 C120.588592,7.03166585 120.256928,6.7633352 119.983594,6.39 L120.633594,5.92 C120.786928,6.1800013 121.000259,6.38833255 121.273594,6.545 C121.546928,6.70166745 121.870259,6.78 122.243594,6.78 C122.423595,6.78 122.603593,6.75166695 122.783594,6.695 C122.963595,6.63833305 123.12526,6.55500055 123.268594,6.445 C123.411928,6.33499945 123.53026,6.2000008 123.623594,6.04 C123.716928,5.8799992 123.763594,5.6966677 123.763594,5.49 C123.763594,5.2433321 123.711928,5.03833415 123.608594,4.875 C123.50526,4.71166585 123.368595,4.57500055 123.198594,4.465 C123.028593,4.35499945 122.835262,4.2633337 122.618594,4.19 L121.948594,3.97 C121.718593,3.8966663 121.495261,3.8133338 121.278594,3.72 C121.061926,3.6266662 120.868595,3.50833405 120.698594,3.365 C120.528593,3.22166595 120.391928,3.04166775 120.288594,2.825 C120.18526,2.60833225 120.133594,2.3366683 120.133594,2.01 C120.133594,1.6699983 120.198593,1.3733346 120.328594,1.12 C120.458594,0.8666654 120.631926,0.6566675 120.848594,0.49 C121.065261,0.3233325 121.310259,0.2000004 121.583594,0.12 C121.856928,0.0399996 122.136926,5.68434189e-14 122.423594,5.68434189e-14 C122.823596,5.68434189e-14 123.186925,0.0633327 123.513594,0.19 C123.840262,0.3166673 124.143592,0.5399984 124.423594,0.86 L123.793594,1.35 Z M128.273594,7.26 L127.553594,7.26 L127.553594,0.84 L125.183594,0.84 L125.183594,0.18 L130.643594,0.18 L130.643594,0.84 L128.273594,0.84 L128.273594,7.26 Z M135.243594,3.31 L136.403594,3.31 C136.723595,3.31 136.995259,3.276667 137.218594,3.21 C137.441928,3.143333 137.62026,3.05500055 137.753594,2.945 C137.886928,2.83499945 137.983593,2.70500075 138.043594,2.555 C138.103594,2.40499925 138.133594,2.2433342 138.133594,2.07 C138.133594,1.9033325 138.103594,1.74500075 138.043594,1.595 C137.983593,1.44499925 137.886928,1.3133339 137.753594,1.2 C137.62026,1.0866661 137.441928,0.99833365 137.218594,0.935 C136.995259,0.87166635 136.723595,0.84 136.403594,0.84 L135.243594,0.84 L135.243594,3.31 Z M134.523594,0.18 L136.583594,0.18 C137.303597,0.18 137.871925,0.3366651 138.288594,0.65 C138.705263,0.9633349 138.913594,1.4366635 138.913594,2.07 C138.913594,2.7033365 138.705263,3.17833175 138.288594,3.495 C137.871925,3.81166825 137.303597,3.97 136.583594,3.97 L135.243594,3.97 L135.243594,7.26 L134.523594,7.26 L134.523594,0.18 Z M140.983594,6.6 L144.773594,6.6 L144.773594,7.26 L140.263594,7.26 L140.263594,0.18 L144.653594,0.18 L144.653594,0.84 L140.983594,0.84 L140.983594,3.25 L144.413594,3.25 L144.413594,3.91 L140.983594,3.91 L140.983594,6.6 Z M146.913594,3.31 L148.193594,3.31 C148.513595,3.31 148.785259,3.276667 149.008594,3.21 C149.231928,3.143333 149.41026,3.05500055 149.543594,2.945 C149.676928,2.83499945 149.773593,2.70500075 149.833594,2.555 C149.893594,2.40499925 149.923594,2.2433342 149.923594,2.07 C149.923594,1.9033325 149.893594,1.74500075 149.833594,1.595 C149.773593,1.44499925 149.676928,1.3133339 149.543594,1.2 C149.41026,1.0866661 149.231928,0.99833365 149.008594,0.935 C148.785259,0.87166635 148.513595,0.84 148.193594,0.84 L146.913594,0.84 L146.913594,3.31 Z M146.913594,7.26 L146.193594,7.26 L146.193594,0.18 L148.373594,0.18 C149.093597,0.18 149.661925,0.3366651 150.078594,0.65 C150.495262,0.9633349 150.703594,1.4366635 150.703594,2.07 C150.703594,2.5633358 150.548595,2.97833165 150.238594,3.315 C149.928592,3.65166835 149.480263,3.8466664 148.893594,3.9 L150.933594,7.26 L150.053594,7.26 L148.113594,3.97 L146.913594,3.97 L146.913594,7.26 Z M155.473594,1.35 C155.160259,0.8899977 154.703597,0.66 154.103594,0.66 C153.916926,0.66 153.733595,0.68499975 153.553594,0.735 C153.373593,0.78500025 153.211928,0.86166615 153.068594,0.965 C152.92526,1.06833385 152.810261,1.20166585 152.723594,1.365 C152.636927,1.52833415 152.593594,1.7199989 152.593594,1.94 C152.593594,2.2600016 152.683593,2.50833245 152.863594,2.685 C153.043595,2.86166755 153.266926,3.0066661 153.533594,3.12 C153.800262,3.2333339 154.091926,3.33499955 154.408594,3.425 C154.725262,3.51500045 155.016926,3.63499925 155.283594,3.785 C155.550262,3.93500075 155.773593,4.1333321 155.953594,4.38 C156.133595,4.6266679 156.223594,4.9633312 156.223594,5.39 C156.223594,5.7100016 156.155261,5.99833205 156.018594,6.255 C155.881926,6.51166795 155.701928,6.7266658 155.478594,6.9 C155.255259,7.0733342 155.005262,7.2066662 154.728594,7.3 C154.451926,7.3933338 154.173595,7.44 153.893594,7.44 C153.460258,7.44 153.048596,7.35833415 152.658594,7.195 C152.268592,7.03166585 151.936928,6.7633352 151.663594,6.39 L152.313594,5.92 C152.466928,6.1800013 152.680259,6.38833255 152.953594,6.545 C153.226928,6.70166745 153.550259,6.78 153.923594,6.78 C154.103595,6.78 154.283593,6.75166695 154.463594,6.695 C154.643595,6.63833305 154.80526,6.55500055 154.948594,6.445 C155.091928,6.33499945 155.21026,6.2000008 155.303594,6.04 C155.396928,5.8799992 155.443594,5.6966677 155.443594,5.49 C155.443594,5.2433321 155.391928,5.03833415 155.288594,4.875 C155.18526,4.71166585 155.048595,4.57500055 154.878594,4.465 C154.708593,4.35499945 154.515261,4.2633337 154.298594,4.19 L153.628594,3.97 C153.398593,3.8966663 153.175261,3.8133338 152.958594,3.72 C152.741926,3.6266662 152.548595,3.50833405 152.378594,3.365 C152.208593,3.22166595 152.071928,3.04166775 151.968594,2.825 C151.86526,2.60833225 151.813594,2.3366683 151.813594,2.01 C151.813594,1.6699983 151.878593,1.3733346 152.008594,1.12 C152.138594,0.8666654 152.311926,0.6566675 152.528594,0.49 C152.745261,0.3233325 152.990259,0.2000004 153.263594,0.12 C153.536928,0.0399996 153.816926,5.68434189e-14 154.103594,5.68434189e-14 C154.503596,5.68434189e-14 154.866925,0.0633327 155.193594,0.19 C155.520262,0.3166673 155.823592,0.5399984 156.103594,0.86 L155.473594,1.35 Z M163.803594,3.72 C163.803594,3.3133313 163.736928,2.92500185 163.603594,2.555 C163.47026,2.18499815 163.278595,1.8600014 163.028594,1.58 C162.778592,1.2999986 162.473596,1.0766675 162.113594,0.91 C161.753592,0.7433325 161.346929,0.66 160.893594,0.66 C160.440258,0.66 160.033596,0.7433325 159.673594,0.91 C159.313592,1.0766675 159.008595,1.2999986 158.758594,1.58 C158.508592,1.8600014 158.316928,2.18499815 158.183594,2.555 C158.05026,2.92500185 157.983594,3.3133313 157.983594,3.72 C157.983594,4.1266687 158.05026,4.51499815 158.183594,4.885 C158.316928,5.25500185 158.508592,5.5799986 158.758594,5.86 C159.008595,6.1400014 159.313592,6.3633325 159.673594,6.53 C160.033596,6.6966675 160.440258,6.78 160.893594,6.78 C161.346929,6.78 161.753592,6.6966675 162.113594,6.53 C162.473596,6.3633325 162.778592,6.1400014 163.028594,5.86 C163.278595,5.5799986 163.47026,5.25500185 163.603594,4.885 C163.736928,4.51499815 163.803594,4.1266687 163.803594,3.72 Z M164.583594,3.72 C164.583594,4.2600027 164.490261,4.7566644 164.303594,5.21 C164.116926,5.6633356 163.858595,6.05499835 163.528594,6.385 C163.198592,6.71500165 162.808596,6.9733324 162.358594,7.16 C161.908591,7.3466676 161.420263,7.44 160.893594,7.44 C160.366924,7.44 159.878596,7.3466676 159.428594,7.16 C158.978591,6.9733324 158.588595,6.71500165 158.258594,6.385 C157.928592,6.05499835 157.670261,5.6633356 157.483594,5.21 C157.296926,4.7566644 157.203594,4.2600027 157.203594,3.72 C157.203594,3.1799973 157.296926,2.6833356 157.483594,2.23 C157.670261,1.7766644 157.928592,1.38500165 158.258594,1.055 C158.588595,0.72499835 158.978591,0.4666676 159.428594,0.28 C159.878596,0.0933324 160.366924,5.68434189e-14 160.893594,5.68434189e-14 C161.420263,5.68434189e-14 161.908591,0.0933324 162.358594,0.28 C162.808596,0.4666676 163.198592,0.72499835 163.528594,1.055 C163.858595,1.38500165 164.116926,1.7766644 164.303594,2.23 C164.490261,2.6833356 164.583594,3.1799973 164.583594,3.72 Z M171.143594,6.18 L171.163594,6.18 L171.163594,0.18 L171.883594,0.18 L171.883594,7.26 L170.983594,7.26 L166.763594,1.2 L166.743594,1.2 L166.743594,7.26 L166.023594,7.26 L166.023594,0.18 L166.923594,0.18 L171.143594,6.18 Z M179.933594,1.35 C179.620259,0.8899977 179.163597,0.66 178.563594,0.66 C178.376926,0.66 178.193595,0.68499975 178.013594,0.735 C177.833593,0.78500025 177.671928,0.86166615 177.528594,0.965 C177.38526,1.06833385 177.270261,1.20166585 177.183594,1.365 C177.096927,1.52833415 177.053594,1.7199989 177.053594,1.94 C177.053594,2.2600016 177.143593,2.50833245 177.323594,2.685 C177.503595,2.86166755 177.726926,3.0066661 177.993594,3.12 C178.260262,3.2333339 178.551925,3.33499955 178.868594,3.425 C179.185262,3.51500045 179.476926,3.63499925 179.743594,3.785 C180.010262,3.93500075 180.233593,4.1333321 180.413594,4.38 C180.593595,4.6266679 180.683594,4.9633312 180.683594,5.39 C180.683594,5.7100016 180.615261,5.99833205 180.478594,6.255 C180.341926,6.51166795 180.161928,6.7266658 179.938594,6.9 C179.715259,7.0733342 179.465262,7.2066662 179.188594,7.3 C178.911926,7.3933338 178.633595,7.44 178.353594,7.44 C177.920258,7.44 177.508596,7.35833415 177.118594,7.195 C176.728592,7.03166585 176.396928,6.7633352 176.123594,6.39 L176.773594,5.92 C176.926928,6.1800013 177.140259,6.38833255 177.413594,6.545 C177.686928,6.70166745 178.010259,6.78 178.383594,6.78 C178.563595,6.78 178.743593,6.75166695 178.923594,6.695 C179.103595,6.63833305 179.26526,6.55500055 179.408594,6.445 C179.551928,6.33499945 179.67026,6.2000008 179.763594,6.04 C179.856928,5.8799992 179.903594,5.6966677 179.903594,5.49 C179.903594,5.2433321 179.851928,5.03833415 179.748594,4.875 C179.64526,4.71166585 179.508595,4.57500055 179.338594,4.465 C179.168593,4.35499945 178.975261,4.2633337 178.758594,4.19 L178.088594,3.97 C177.858593,3.8966663 177.635261,3.8133338 177.418594,3.72 C177.201926,3.6266662 177.008595,3.50833405 176.838594,3.365 C176.668593,3.22166595 176.531928,3.04166775 176.428594,2.825 C176.32526,2.60833225 176.273594,2.3366683 176.273594,2.01 C176.273594,1.6699983 176.338593,1.3733346 176.468594,1.12 C176.598594,0.8666654 176.771926,0.6566675 176.988594,0.49 C177.205261,0.3233325 177.450259,0.2000004 177.723594,0.12 C177.996928,0.0399996 178.276926,5.68434189e-14 178.563594,5.68434189e-14 C178.963596,5.68434189e-14 179.326925,0.0633327 179.653594,0.19 C179.980262,0.3166673 180.283592,0.5399984 180.563594,0.86 L179.933594,1.35 Z M182.143594,0.18 L182.863594,0.18 L182.863594,3.25 L186.723594,3.25 L186.723594,0.18 L187.443594,0.18 L187.443594,7.26 L186.723594,7.26 L186.723594,3.91 L182.863594,3.91 L182.863594,7.26 L182.143594,7.26 L182.143594,0.18 Z M195.483594,3.72 C195.483594,3.3133313 195.416928,2.92500185 195.283594,2.555 C195.15026,2.18499815 194.958595,1.8600014 194.708594,1.58 C194.458593,1.2999986 194.153596,1.0766675 193.793594,0.91 C193.433592,0.7433325 193.026929,0.66 192.573594,0.66 C192.120258,0.66 191.713596,0.7433325 191.353594,0.91 C190.993592,1.0766675 190.688595,1.2999986 190.438594,1.58 C190.188593,1.8600014 189.996928,2.18499815 189.863594,2.555 C189.73026,2.92500185 189.663594,3.3133313 189.663594,3.72 C189.663594,4.1266687 189.73026,4.51499815 189.863594,4.885 C189.996928,5.25500185 190.188593,5.5799986 190.438594,5.86 C190.688595,6.1400014 190.993592,6.3633325 191.353594,6.53 C191.713596,6.6966675 192.120258,6.78 192.573594,6.78 C193.026929,6.78 193.433592,6.6966675 193.793594,6.53 C194.153596,6.3633325 194.458593,6.1400014 194.708594,5.86 C194.958595,5.5799986 195.15026,5.25500185 195.283594,4.885 C195.416928,4.51499815 195.483594,4.1266687 195.483594,3.72 Z M196.263594,3.72 C196.263594,4.2600027 196.170261,4.7566644 195.983594,5.21 C195.796926,5.6633356 195.538595,6.05499835 195.208594,6.385 C194.878592,6.71500165 194.488596,6.9733324 194.038594,7.16 C193.588592,7.3466676 193.100263,7.44 192.573594,7.44 C192.046924,7.44 191.558596,7.3466676 191.108594,7.16 C190.658591,6.9733324 190.268595,6.71500165 189.938594,6.385 C189.608592,6.05499835 189.350261,5.6633356 189.163594,5.21 C188.976926,4.7566644 188.883594,4.2600027 188.883594,3.72 C188.883594,3.1799973 188.976926,2.6833356 189.163594,2.23 C189.350261,1.7766644 189.608592,1.38500165 189.938594,1.055 C190.268595,0.72499835 190.658591,0.4666676 191.108594,0.28 C191.558596,0.0933324 192.046924,5.68434189e-14 192.573594,5.68434189e-14 C193.100263,5.68434189e-14 193.588592,0.0933324 194.038594,0.28 C194.488596,0.4666676 194.878592,0.72499835 195.208594,1.055 C195.538595,1.38500165 195.796926,1.7766644 195.983594,2.23 C196.170261,2.6833356 196.263594,3.1799973 196.263594,3.72 Z M203.823594,3.72 C203.823594,3.3133313 203.756928,2.92500185 203.623594,2.555 C203.49026,2.18499815 203.298595,1.8600014 203.048594,1.58 C202.798592,1.2999986 202.493596,1.0766675 202.133594,0.91 C201.773592,0.7433325 201.366929,0.66 200.913594,0.66 C200.460258,0.66 200.053596,0.7433325 199.693594,0.91 C199.333592,1.0766675 199.028595,1.2999986 198.778594,1.58 C198.528592,1.8600014 198.336928,2.18499815 198.203594,2.555 C198.07026,2.92500185 198.003594,3.3133313 198.003594,3.72 C198.003594,4.1266687 198.07026,4.51499815 198.203594,4.885 C198.336928,5.25500185 198.528592,5.5799986 198.778594,5.86 C199.028595,6.1400014 199.333592,6.3633325 199.693594,6.53 C200.053596,6.6966675 200.460258,6.78 200.913594,6.78 C201.366929,6.78 201.773592,6.6966675 202.133594,6.53 C202.493596,6.3633325 202.798592,6.1400014 203.048594,5.86 C203.298595,5.5799986 203.49026,5.25500185 203.623594,4.885 C203.756928,4.51499815 203.823594,4.1266687 203.823594,3.72 Z M204.603594,3.72 C204.603594,4.2600027 204.510261,4.7566644 204.323594,5.21 C204.136926,5.6633356 203.878595,6.05499835 203.548594,6.385 C203.218592,6.71500165 202.828596,6.9733324 202.378594,7.16 C201.928591,7.3466676 201.440263,7.44 200.913594,7.44 C200.386924,7.44 199.898596,7.3466676 199.448594,7.16 C198.998591,6.9733324 198.608595,6.71500165 198.278594,6.385 C197.948592,6.05499835 197.690261,5.6633356 197.503594,5.21 C197.316926,4.7566644 197.223594,4.2600027 197.223594,3.72 C197.223594,3.1799973 197.316926,2.6833356 197.503594,2.23 C197.690261,1.7766644 197.948592,1.38500165 198.278594,1.055 C198.608595,0.72499835 198.998591,0.4666676 199.448594,0.28 C199.898596,0.0933324 200.386924,5.68434189e-14 200.913594,5.68434189e-14 C201.440263,5.68434189e-14 201.928591,0.0933324 202.378594,0.28 C202.828596,0.4666676 203.218592,0.72499835 203.548594,1.055 C203.878595,1.38500165 204.136926,1.7766644 204.323594,2.23 C204.510261,2.6833356 204.603594,3.1799973 204.603594,3.72 Z M208.313594,7.26 L207.593594,7.26 L207.593594,0.84 L205.223594,0.84 L205.223594,0.18 L210.683594,0.18 L210.683594,0.84 L208.313594,0.84 L208.313594,7.26 Z M212.503594,6.6 L216.293594,6.6 L216.293594,7.26 L211.783594,7.26 L211.783594,0.18 L216.173594,0.18 L216.173594,0.84 L212.503594,0.84 L212.503594,3.25 L215.933594,3.25 L215.933594,3.91 L212.503594,3.91 L212.503594,6.6 Z M218.433594,3.31 L219.713594,3.31 C220.033595,3.31 220.305259,3.276667 220.528594,3.21 C220.751928,3.143333 220.93026,3.05500055 221.063594,2.945 C221.196928,2.83499945 221.293593,2.70500075 221.353594,2.555 C221.413594,2.40499925 221.443594,2.2433342 221.443594,2.07 C221.443594,1.9033325 221.413594,1.74500075 221.353594,1.595 C221.293593,1.44499925 221.196928,1.3133339 221.063594,1.2 C220.93026,1.0866661 220.751928,0.99833365 220.528594,0.935 C220.305259,0.87166635 220.033595,0.84 219.713594,0.84 L218.433594,0.84 L218.433594,3.31 Z M218.433594,7.26 L217.713594,7.26 L217.713594,0.18 L219.893594,0.18 C220.613597,0.18 221.181925,0.3366651 221.598594,0.65 C222.015262,0.9633349 222.223594,1.4366635 222.223594,2.07 C222.223594,2.5633358 222.068595,2.97833165 221.758594,3.315 C221.448592,3.65166835 221.000263,3.8466664 220.413594,3.9 L222.453594,7.26 L221.573594,7.26 L219.633594,3.97 L218.433594,3.97 L218.433594,7.26 Z" id="THEORIGINALFIRSTPERSONSHOOTER" fill="#7C7064"></path>
            <path d="M56.7935937,63.6 L58.1935937,63.6 C58.7335965,63.6 59.2019251,63.5183342 59.5985937,63.355 C59.9952624,63.1916658 60.3252591,62.9750014 60.5885937,62.705 C60.8519284,62.4349987 61.0469265,62.1283351 61.1735938,61.785 C61.3002611,61.441665 61.3635938,61.0866685 61.3635938,60.72 C61.3635938,60.3533315 61.3002611,59.9983351 61.1735938,59.655 C61.0469265,59.311665 60.8519284,59.0050014 60.5885937,58.735 C60.3252591,58.4649987 59.9952624,58.2483342 59.5985937,58.085 C59.2019251,57.9216659 58.7335965,57.84 58.1935937,57.84 L56.7935937,57.84 L56.7935937,63.6 Z M56.0735938,57.18 L58.4235938,57.18 C58.8635959,57.18 59.3052582,57.2533326 59.7485938,57.4 C60.1919293,57.5466674 60.5919253,57.7683319 60.9485938,58.065 C61.3052622,58.3616682 61.5935926,58.7316645 61.8135938,59.175 C62.0335949,59.6183356 62.1435938,60.1333304 62.1435938,60.72 C62.1435938,61.3133363 62.0335949,61.8299978 61.8135938,62.27 C61.5935926,62.7100022 61.3052622,63.0783319 60.9485938,63.375 C60.5919253,63.6716682 60.1919293,63.8933326 59.7485938,64.04 C59.3052582,64.1866674 58.8635959,64.26 58.4235938,64.26 L56.0735938,64.26 L56.0735938,57.18 Z M69.7035937,60.72 C69.7035937,60.3133313 69.6369278,59.9250019 69.5035937,59.555 C69.3702598,59.1849982 69.178595,58.8600014 68.9285937,58.58 C68.6785925,58.2999986 68.3735955,58.0766675 68.0135937,57.91 C67.6535919,57.7433325 67.2469294,57.66 66.7935937,57.66 C66.3402581,57.66 65.9335956,57.7433325 65.5735938,57.91 C65.2135919,58.0766675 64.908595,58.2999986 64.6585937,58.58 C64.4085925,58.8600014 64.2169277,59.1849982 64.0835938,59.555 C63.9502597,59.9250019 63.8835938,60.3133313 63.8835938,60.72 C63.8835938,61.1266687 63.9502597,61.5149982 64.0835938,61.885 C64.2169277,62.2550019 64.4085925,62.5799986 64.6585937,62.86 C64.908595,63.1400014 65.2135919,63.3633325 65.5735938,63.53 C65.9335956,63.6966675 66.3402581,63.78 66.7935937,63.78 C67.2469294,63.78 67.6535919,63.6966675 68.0135937,63.53 C68.3735955,63.3633325 68.6785925,63.1400014 68.9285937,62.86 C69.178595,62.5799986 69.3702598,62.2550019 69.5035937,61.885 C69.6369278,61.5149982 69.7035937,61.1266687 69.7035937,60.72 Z M70.4835937,60.72 C70.4835937,61.2600027 70.3902613,61.7566644 70.2035937,62.21 C70.0169262,62.6633356 69.7585954,63.0549984 69.4285937,63.385 C69.0985921,63.7150017 68.708596,63.9733324 68.2585938,64.16 C67.8085915,64.3466676 67.320263,64.44 66.7935937,64.44 C66.2669245,64.44 65.778596,64.3466676 65.3285937,64.16 C64.8785915,63.9733324 64.4885954,63.7150017 64.1585937,63.385 C63.8285921,63.0549984 63.5702614,62.6633356 63.3835938,62.21 C63.1969262,61.7566644 63.1035938,61.2600027 63.1035938,60.72 C63.1035938,60.1799973 63.1969262,59.6833356 63.3835938,59.23 C63.5702614,58.7766644 63.8285921,58.3850016 64.1585937,58.055 C64.4885954,57.7249984 64.8785915,57.4666676 65.3285937,57.28 C65.778596,57.0933324 66.2669245,57 66.7935937,57 C67.320263,57 67.8085915,57.0933324 68.2585938,57.28 C68.708596,57.4666676 69.0985921,57.7249984 69.4285937,58.055 C69.7585954,58.3850016 70.0169262,58.7766644 70.2035937,59.23 C70.3902613,59.6833356 70.4835937,60.1799973 70.4835937,60.72 Z M73.4635937,63.24 L73.4835937,63.24 L75.2635937,57.18 L76.1235938,57.18 L77.9035938,63.24 L77.9235938,63.24 L79.6035938,57.18 L80.4035938,57.18 L78.3135938,64.26 L77.4735937,64.26 L75.6935937,58.2 L75.6735938,58.2 L73.8935938,64.26 L73.0535937,64.26 L70.9635937,57.18 L71.7635937,57.18 L73.4635937,63.24 Z M86.4835937,63.18 L86.5035937,63.18 L86.5035937,57.18 L87.2235937,57.18 L87.2235937,64.26 L86.3235938,64.26 L82.1035938,58.2 L82.0835938,58.2 L82.0835938,64.26 L81.3635938,64.26 L81.3635938,57.18 L82.2635937,57.18 L86.4835937,63.18 Z M89.8635938,63.6 L93.1635938,63.6 L93.1635938,64.26 L89.1435938,64.26 L89.1435938,57.18 L89.8635938,57.18 L89.8635938,63.6 Z M100.263594,60.72 C100.263594,60.3133313 100.196928,59.9250019 100.063594,59.555 C99.9302598,59.1849982 99.738595,58.8600014 99.4885938,58.58 C99.2385925,58.2999986 98.9335956,58.0766675 98.5735938,57.91 C98.2135919,57.7433325 97.8069294,57.66 97.3535938,57.66 C96.9002581,57.66 96.4935956,57.7433325 96.1335938,57.91 C95.773592,58.0766675 95.468595,58.2999986 95.2185938,58.58 C94.9685925,58.8600014 94.7769277,59.1849982 94.6435938,59.555 C94.5102597,59.9250019 94.4435937,60.3133313 94.4435937,60.72 C94.4435937,61.1266687 94.5102597,61.5149982 94.6435938,61.885 C94.7769277,62.2550019 94.9685925,62.5799986 95.2185938,62.86 C95.468595,63.1400014 95.773592,63.3633325 96.1335938,63.53 C96.4935956,63.6966675 96.9002581,63.78 97.3535938,63.78 C97.8069294,63.78 98.2135919,63.6966675 98.5735938,63.53 C98.9335956,63.3633325 99.2385925,63.1400014 99.4885938,62.86 C99.738595,62.5799986 99.9302598,62.2550019 100.063594,61.885 C100.196928,61.5149982 100.263594,61.1266687 100.263594,60.72 Z M101.043594,60.72 C101.043594,61.2600027 100.950261,61.7566644 100.763594,62.21 C100.576926,62.6633356 100.318595,63.0549984 99.9885938,63.385 C99.6585921,63.7150017 99.268596,63.9733324 98.8185937,64.16 C98.3685915,64.3466676 97.880263,64.44 97.3535938,64.44 C96.8269244,64.44 96.338596,64.3466676 95.8885937,64.16 C95.4385915,63.9733324 95.0485954,63.7150017 94.7185938,63.385 C94.3885921,63.0549984 94.1302613,62.6633356 93.9435937,62.21 C93.7569262,61.7566644 93.6635938,61.2600027 93.6635938,60.72 C93.6635938,60.1799973 93.7569262,59.6833356 93.9435937,59.23 C94.1302613,58.7766644 94.3885921,58.3850016 94.7185938,58.055 C95.0485954,57.7249984 95.4385915,57.4666676 95.8885937,57.28 C96.338596,57.0933324 96.8269244,57 97.3535938,57 C97.880263,57 98.3685915,57.0933324 98.8185937,57.28 C99.268596,57.4666676 99.6585921,57.7249984 99.9885938,58.055 C100.318595,58.3850016 100.576926,58.7766644 100.763594,59.23 C100.950261,59.6833356 101.043594,60.1799973 101.043594,60.72 Z M103.413594,61.74 L106.483594,61.74 L104.953594,58.02 L103.413594,61.74 Z M102.363594,64.26 L101.523594,64.26 L104.603594,57.18 L105.303594,57.18 L108.383594,64.26 L107.543594,64.26 L106.763594,62.4 L103.143594,62.4 L102.363594,64.26 Z M109.963594,63.6 L111.363594,63.6 C111.903596,63.6 112.371925,63.5183342 112.768594,63.355 C113.165262,63.1916658 113.495259,62.9750014 113.758594,62.705 C114.021928,62.4349987 114.216926,62.1283351 114.343594,61.785 C114.470261,61.441665 114.533594,61.0866685 114.533594,60.72 C114.533594,60.3533315 114.470261,59.9983351 114.343594,59.655 C114.216926,59.311665 114.021928,59.0050014 113.758594,58.735 C113.495259,58.4649987 113.165262,58.2483342 112.768594,58.085 C112.371925,57.9216659 111.903596,57.84 111.363594,57.84 L109.963594,57.84 L109.963594,63.6 Z M109.243594,57.18 L111.593594,57.18 C112.033596,57.18 112.475258,57.2533326 112.918594,57.4 C113.361929,57.5466674 113.761925,57.7683319 114.118594,58.065 C114.475262,58.3616682 114.763593,58.7316645 114.983594,59.175 C115.203595,59.6183356 115.313594,60.1333304 115.313594,60.72 C115.313594,61.3133363 115.203595,61.8299978 114.983594,62.27 C114.763593,62.7100022 114.475262,63.0783319 114.118594,63.375 C113.761925,63.6716682 113.361929,63.8933326 112.918594,64.04 C112.475258,64.1866674 112.033596,64.26 111.593594,64.26 L109.243594,64.26 L109.243594,57.18 Z M120.463594,61.74 L123.533594,61.74 L122.003594,58.02 L120.463594,61.74 Z M119.413594,64.26 L118.573594,64.26 L121.653594,57.18 L122.353594,57.18 L125.433594,64.26 L124.593594,64.26 L123.813594,62.4 L120.193594,62.4 L119.413594,64.26 Z M127.983594,64.26 L127.263594,64.26 L127.263594,57.84 L124.893594,57.84 L124.893594,57.18 L130.353594,57.18 L130.353594,57.84 L127.983594,57.84 L127.983594,64.26 Z M139.353594,63.18 L139.373594,63.18 L139.373594,57.18 L140.093594,57.18 L140.093594,64.26 L139.193594,64.26 L134.973594,58.2 L134.953594,58.2 L134.953594,64.26 L134.233594,64.26 L134.233594,57.18 L135.133594,57.18 L139.353594,63.18 Z M149.163594,64.26 L145.113594,64.26 C144.600258,64.26 144.125263,64.1700009 143.688594,63.99 C143.251925,63.8099991 142.873595,63.558335 142.553594,63.235 C142.233592,62.9116651 141.983595,62.5283356 141.803594,62.085 C141.623593,61.6416645 141.533594,61.1566693 141.533594,60.63 C141.533594,60.1033307 141.623593,59.6183356 141.803594,59.175 C141.983595,58.7316645 142.233592,58.348335 142.553594,58.025 C142.873595,57.7016651 143.251925,57.4500009 143.688594,57.27 C144.125263,57.0899991 144.600258,57 145.113594,57 C145.620263,57 146.091925,57.0899991 146.528594,57.27 C146.965263,57.4500009 147.343592,57.7016651 147.663594,58.025 C147.983595,58.348335 148.233593,58.7316645 148.413594,59.175 C148.593595,59.6183356 148.683594,60.1033307 148.683594,60.63 C148.683594,61.2700032 148.551928,61.8449974 148.288594,62.355 C148.025259,62.8650026 147.603597,63.2733318 147.023594,63.58 L147.023594,63.6 L149.163594,63.6 L149.163594,64.26 Z M142.313594,60.63 C142.313594,61.0233353 142.376926,61.3983316 142.503594,61.755 C142.630261,62.1116685 142.813594,62.4266653 143.053594,62.7 C143.293595,62.9733347 143.586925,63.1916658 143.933594,63.355 C144.280262,63.5183342 144.673592,63.6 145.113594,63.6 C145.546929,63.6 145.936925,63.5183342 146.283594,63.355 C146.630262,63.1916658 146.923593,62.9733347 147.163594,62.7 C147.403595,62.4266653 147.586926,62.1116685 147.713594,61.755 C147.840261,61.3983316 147.903594,61.0233353 147.903594,60.63 C147.903594,60.2366647 147.840261,59.8616685 147.713594,59.505 C147.586926,59.1483316 147.403595,58.8333347 147.163594,58.56 C146.923593,58.2866653 146.630262,58.0683341 146.283594,57.905 C145.936925,57.7416659 145.546929,57.66 145.113594,57.66 C144.673592,57.66 144.280262,57.7416659 143.933594,57.905 C143.586925,58.0683341 143.293595,58.2866653 143.053594,58.56 C142.813594,58.8333347 142.630261,59.1483316 142.503594,59.505 C142.376926,59.8616685 142.313594,60.2366647 142.313594,60.63 Z M155.413594,61.62 C155.413594,61.9133348 155.378594,62.2249984 155.308594,62.555 C155.238593,62.8850016 155.106928,63.1899986 154.913594,63.47 C154.720259,63.7500014 154.455262,63.9816658 154.118594,64.165 C153.781925,64.3483343 153.350263,64.44 152.823594,64.44 C152.290258,64.44 151.856929,64.3483343 151.523594,64.165 C151.190259,63.9816658 150.926928,63.7500014 150.733594,63.47 C150.540259,63.1899986 150.408594,62.8850016 150.338594,62.555 C150.268593,62.2249984 150.233594,61.9133348 150.233594,61.62 L150.233594,57.18 L150.953594,57.18 L150.953594,61.54 C150.953594,61.8800017 150.986927,62.1716655 151.053594,62.415 C151.120261,62.6583346 151.208593,62.8633325 151.318594,63.03 C151.428594,63.1966675 151.551926,63.3283329 151.688594,63.425 C151.825261,63.5216672 151.961926,63.5966664 152.098594,63.65 C152.235261,63.7033336 152.366926,63.7383333 152.493594,63.755 C152.620261,63.7716668 152.73026,63.78 152.823594,63.78 C152.910261,63.78 153.018593,63.7716668 153.148594,63.755 C153.278594,63.7383333 153.411926,63.7033336 153.548594,63.65 C153.685261,63.5966664 153.821926,63.5216672 153.958594,63.425 C154.095261,63.3283329 154.218593,63.1966675 154.328594,63.03 C154.438594,62.8633325 154.526927,62.6583346 154.593594,62.415 C154.660261,62.1716655 154.693594,61.8800017 154.693594,61.54 L154.693594,57.18 L155.413594,57.18 L155.413594,61.62 Z M158.143594,61.74 L161.213594,61.74 L159.683594,58.02 L158.143594,61.74 Z M157.093594,64.26 L156.253594,64.26 L159.333594,57.18 L160.033594,57.18 L163.113594,64.26 L162.273594,64.26 L161.493594,62.4 L157.873594,62.4 L157.093594,64.26 Z M164.793594,57.18 L164.793594,60.25 L164.893594,60.25 L168.223594,57.18 L169.253594,57.18 L165.683594,60.39 L169.453594,64.26 L168.393594,64.26 L164.913594,60.61 L164.793594,60.61 L164.793594,64.26 L164.073594,64.26 L164.073594,57.18 L164.793594,57.18 Z M171.093594,63.6 L174.883594,63.6 L174.883594,64.26 L170.373594,64.26 L170.373594,57.18 L174.763594,57.18 L174.763594,57.84 L171.093594,57.84 L171.093594,60.25 L174.523594,60.25 L174.523594,60.91 L171.093594,60.91 L171.093594,63.6 Z M177.273594,63.78 C177.273594,63.9200007 177.223594,64.0449995 177.123594,64.155 C177.023593,64.2650006 176.893595,64.32 176.733594,64.32 C176.573593,64.32 176.443594,64.2650006 176.343594,64.155 C176.243593,64.0449995 176.193594,63.9200007 176.193594,63.78 C176.193594,63.6399993 176.243593,63.5150006 176.343594,63.405 C176.443594,63.2949995 176.573593,63.24 176.733594,63.24 C176.893595,63.24 177.023593,63.2949995 177.123594,63.405 C177.223594,63.5150006 177.273594,63.6399993 177.273594,63.78 Z M184.913594,63.14 C184.793593,63.3200009 184.645261,63.4899992 184.468594,63.65 C184.291926,63.8100008 184.090262,63.9483328 183.863594,64.065 C183.636926,64.1816673 183.391928,64.273333 183.128594,64.34 C182.865259,64.406667 182.586929,64.44 182.293594,64.44 C181.766924,64.44 181.278596,64.3466676 180.828594,64.16 C180.378592,63.9733324 179.988595,63.7150017 179.658594,63.385 C179.328592,63.0549984 179.070261,62.6633356 178.883594,62.21 C178.696926,61.7566644 178.603594,61.2600027 178.603594,60.72 C178.603594,60.1799973 178.696926,59.6833356 178.883594,59.23 C179.070261,58.7766644 179.328592,58.3850016 179.658594,58.055 C179.988595,57.7249984 180.378592,57.4666676 180.828594,57.28 C181.278596,57.0933324 181.766924,57 182.293594,57 C182.733596,57 183.173592,57.0866658 183.613594,57.26 C184.053596,57.4333342 184.430259,57.719998 184.743594,58.12 L184.113594,58.59 C184.04026,58.4766661 183.940261,58.3633339 183.813594,58.25 C183.686926,58.1366661 183.541928,58.0366671 183.378594,57.95 C183.21526,57.8633329 183.040261,57.7933336 182.853594,57.74 C182.666926,57.6866664 182.480261,57.66 182.293594,57.66 C181.840258,57.66 181.433596,57.7433325 181.073594,57.91 C180.713592,58.0766675 180.408595,58.2999986 180.158594,58.58 C179.908592,58.8600014 179.716928,59.1849982 179.583594,59.555 C179.45026,59.9250019 179.383594,60.3133313 179.383594,60.72 C179.383594,61.1266687 179.45026,61.5149982 179.583594,61.885 C179.716928,62.2550019 179.908592,62.5799986 180.158594,62.86 C180.408595,63.1400014 180.713592,63.3633325 181.073594,63.53 C181.433596,63.6966675 181.840258,63.78 182.293594,63.78 C182.480261,63.78 182.66526,63.7633335 182.848594,63.73 C183.031928,63.6966665 183.211926,63.6400004 183.388594,63.56 C183.565261,63.4799996 183.731926,63.3716673 183.888594,63.235 C184.045261,63.0983327 184.19026,62.9266677 184.323594,62.72 L184.913594,63.14 Z M192.243594,60.72 C192.243594,60.3133313 192.176928,59.9250019 192.043594,59.555 C191.91026,59.1849982 191.718595,58.8600014 191.468594,58.58 C191.218592,58.2999986 190.913596,58.0766675 190.553594,57.91 C190.193592,57.7433325 189.786929,57.66 189.333594,57.66 C188.880258,57.66 188.473596,57.7433325 188.113594,57.91 C187.753592,58.0766675 187.448595,58.2999986 187.198594,58.58 C186.948592,58.8600014 186.756928,59.1849982 186.623594,59.555 C186.49026,59.9250019 186.423594,60.3133313 186.423594,60.72 C186.423594,61.1266687 186.49026,61.5149982 186.623594,61.885 C186.756928,62.2550019 186.948592,62.5799986 187.198594,62.86 C187.448595,63.1400014 187.753592,63.3633325 188.113594,63.53 C188.473596,63.6966675 188.880258,63.78 189.333594,63.78 C189.786929,63.78 190.193592,63.6966675 190.553594,63.53 C190.913596,63.3633325 191.218592,63.1400014 191.468594,62.86 C191.718595,62.5799986 191.91026,62.2550019 192.043594,61.885 C192.176928,61.5149982 192.243594,61.1266687 192.243594,60.72 Z M193.023594,60.72 C193.023594,61.2600027 192.930261,61.7566644 192.743594,62.21 C192.556926,62.6633356 192.298595,63.0549984 191.968594,63.385 C191.638592,63.7150017 191.248596,63.9733324 190.798594,64.16 C190.348592,64.3466676 189.860263,64.44 189.333594,64.44 C188.806924,64.44 188.318596,64.3466676 187.868594,64.16 C187.418592,63.9733324 187.028595,63.7150017 186.698594,63.385 C186.368592,63.0549984 186.110261,62.6633356 185.923594,62.21 C185.736926,61.7566644 185.643594,61.2600027 185.643594,60.72 C185.643594,60.1799973 185.736926,59.6833356 185.923594,59.23 C186.110261,58.7766644 186.368592,58.3850016 186.698594,58.055 C187.028595,57.7249984 187.418592,57.4666676 187.868594,57.28 C188.318596,57.0933324 188.806924,57 189.333594,57 C189.860263,57 190.348592,57.0933324 190.798594,57.28 C191.248596,57.4666676 191.638592,57.7249984 191.968594,58.055 C192.298595,58.3850016 192.556926,58.7766644 192.743594,59.23 C192.930261,59.6833356 193.023594,60.1799973 193.023594,60.72 Z M197.953594,62.94 L200.343594,57.18 L201.443594,57.18 L201.443594,64.26 L200.723594,64.26 L200.723594,58.14 L200.703594,58.14 L198.143594,64.26 L197.763594,64.26 L195.203594,58.14 L195.183594,58.14 L195.183594,64.26 L194.463594,64.26 L194.463594,57.18 L195.563594,57.18 L197.953594,62.94 Z" id="DOWNLOADATNQUAKE.COM" fill="#7C7064"></path>
            <g id="QUAKEWORLD" transform="translate(0.000000, 16.064687)">
                <g id="QUAKE">
                    <use fill="black" fill-opacity="1" filter="url(#filter-2)" xlink:href="#path-1"></use>
                    <use fill="#FFFFFF" xlink:href="#path-1"></use>
                </g>
                <g id="WORLD">
                    <use fill="black" fill-opacity="1" filter="url(#filter-4)" xlink:href="#path-3"></use>
                    <use fill="#CE5B22" xlink:href="#path-3"></use>
                </g>
            </g>
        </g>
    </g>
</svg>